<svg width="16" height="16" viewBox="0 0 16 16" fill="none" xmlns="http://www.w3.org/2000/svg">
<path d="M14.5833 15.4791L9.10417 9.99996C8.6875 10.3611 8.20139 10.6423 7.64583 10.8437C7.09028 11.0451 6.5 11.1458 5.875 11.1458C4.375 11.1458 3.10417 10.625 2.0625 9.58329C1.02083 8.54163 0.5 7.28468 0.5 5.81246C0.5 4.34024 1.02083 3.08329 2.0625 2.04163C3.10417 0.999959 4.36806 0.479126 5.85417 0.479126C7.32639 0.479126 8.57986 0.999959 9.61458 2.04163C10.6493 3.08329 11.1667 4.34024 11.1667 5.81246C11.1667 6.40968 11.0694 6.98607 10.875 7.54163C10.6806 8.09718 10.3889 8.61802 10 9.10413L15.5 14.5625L14.5833 15.4791ZM5.85417 9.89579C6.97917 9.89579 7.9375 9.49649 8.72917 8.69788C9.52083 7.89926 9.91667 6.93746 9.91667 5.81246C9.91667 4.68746 9.52083 3.72565 8.72917 2.92704C7.9375 2.12843 6.97917 1.72913 5.85417 1.72913C4.71528 1.72913 3.74653 2.12843 2.94792 2.92704C2.14931 3.72565 1.75 4.68746 1.75 5.81246C1.75 6.93746 2.14931 7.89926 2.94792 8.69788C3.74653 9.49649 4.71528 9.89579 5.85417 9.89579Z" fill="#6B7073"/>
</svg>
